<svg width="18" height="18" viewBox="0 0 18 18" fill="none" xmlns="http://www.w3.org/2000/svg">
<g clip-path="url(#clip0_688_129393)">
<path d="M18 16C18 16.5304 17.7893 17.0391 17.4142 17.4142C17.0391 17.7893 16.5304 18 16 18H2C1.46957 18 0.960859 17.7893 0.585786 17.4142C0.210714 17.0391 0 16.5304 0 16V2C0 1.46957 0.210714 0.960859 0.585786 0.585786C0.960859 0.210714 1.46957 0 2 0L16 0C16.5304 0 17.0391 0.210714 17.4142 0.585786C17.7893 0.960859 18 1.46957 18 2V16Z" fill="#3470FF"/>
<path d="M7.07692 14C6.78077 14 6.52715 13.8911 6.31608 13.6733C6.105 13.4556 5.99964 13.1941 6 12.8889V5.11111C6 4.80556 6.10554 4.54389 6.31662 4.32611C6.52769 4.10833 6.78113 3.99963 7.07692 4H9.76923C10.6667 4 11.4295 4.32407 12.0577 4.97222C12.6859 5.62037 13 6.40741 13 7.33333C13 8.25926 12.6859 9.0463 12.0577 9.69444C11.4295 10.3426 10.6667 10.6667 9.76923 10.6667H8.15385V12.8889C8.15385 13.1944 8.04831 13.4561 7.83723 13.6739C7.62615 13.8917 7.37272 14.0004 7.07692 14ZM8.15385 8.44444H9.87692C10.1731 8.44444 10.4267 8.33556 10.6378 8.11778C10.8488 7.9 10.9542 7.63852 10.9538 7.33333C10.9538 7.02778 10.8485 6.76611 10.6378 6.54833C10.4271 6.33056 10.1734 6.22185 9.87692 6.22222H8.15385V8.44444Z" fill="white"/>
</g>
<defs>
<clipPath id="clip0_688_129393">
<rect width="18" height="18" fill="white"/>
</clipPath>
</defs>
</svg>
