<svg width="148" height="52" viewBox="0 0 148 52" fill="none" xmlns="http://www.w3.org/2000/svg">
<g filter="url(#filter0_dd_1304_131484)">
<rect x="4.1125" y="3.1125" width="43.775" height="43.775" rx="8.8875" fill="white"/>
<rect x="4.1125" y="3.1125" width="43.775" height="43.775" rx="8.8875" fill="url(#paint0_linear_1304_131484)"/>
<g filter="url(#filter1_dd_1304_131484)">
<circle cx="26.0006" cy="25.0006" r="14.6667" fill="url(#paint1_linear_1304_131484)"/>
</g>
<rect x="4.1125" y="3.1125" width="43.775" height="43.775" rx="8.8875" stroke="#D0D5DD" stroke-width="0.225"/>
<g clip-path="url(#clip0_1304_131484)">
<path d="M31.8774 21.5497H30.3298C30.3298 21.5497 30.3214 22.4376 30.3129 22.6067H31.8774C32.4609 22.6067 32.9345 23.0803 32.9345 23.6638V26.3108C32.9345 26.8943 32.4609 27.3678 31.8774 27.3678H28.9175C28.3002 27.3678 27.8436 27.3086 27.5053 27.1903C27.0233 27.0296 26.778 26.7505 26.6596 26.3784C26.4228 26.3869 26.1945 26.3869 26.0085 26.3869C25.8647 26.3869 25.7209 26.3869 25.5772 26.3869C25.7463 27.2072 26.2199 27.9598 27.5137 28.2727C27.7759 28.3319 28.0719 28.3742 28.3932 28.3996V30.852C28.3932 31.4355 27.9197 31.9091 27.3362 31.9091H24.6723C24.0888 31.9091 23.6152 31.4355 23.6152 30.852V27.8922C23.6152 25.5074 24.5116 25.5074 26 25.5074C27.4545 25.5074 29.4503 25.5074 29.4503 22.0571V19.0972C29.4503 17.9302 28.4947 16.9746 27.3277 16.9746L24.6723 17C23.5053 17 22.5497 17.9556 22.5497 19.1226V21.5497H20.1226C18.9471 21.5497 18 22.5053 18 23.6723V26.3192C18 27.4862 18.9471 28.4418 20.1226 28.4418H21.6702V27.9091C21.6702 27.723 21.6786 27.5454 21.6871 27.3763H20.1226C19.5391 27.3763 19.0655 26.9027 19.0655 26.3192V23.6723C19.0655 23.0888 19.5391 22.6152 20.1226 22.6152H23.0825C23.6998 22.6152 24.1564 22.6744 24.4947 22.7928C24.9767 22.9535 25.222 23.2325 25.3404 23.6046C25.5772 23.5962 25.8055 23.5962 25.9915 23.5962C26.1353 23.5962 26.2791 23.5962 26.4228 23.5962C26.2537 22.7759 25.7801 22.0232 24.4863 21.7103C24.2241 21.6511 23.9281 21.6089 23.6068 21.5835V19.1311C23.6068 18.5475 24.0803 18.074 24.6638 18.074H27.3192C27.9027 18.074 28.3763 18.5475 28.3763 19.1311V22.0909C28.3763 24.4757 27.4799 24.4757 25.9915 24.4757C24.537 24.4757 22.5412 24.4757 22.5412 27.926V30.8858C22.5412 32.0528 23.4968 33.0084 24.6638 33.0084H27.3192C28.4863 33.0084 29.4419 32.0528 29.4419 30.8858V28.4588H31.8689C33.0359 28.4588 33.9915 27.5032 33.9915 26.3361V23.6723C34 22.5053 33.0444 21.5497 31.8774 21.5497Z" fill="#FFE600"/>
</g>
</g>
<path d="M64.1989 19.3636H66.6591V26.9205C66.6591 27.7689 66.4564 28.5114 66.0511 29.1477C65.6496 29.7841 65.0871 30.2803 64.3636 30.6364C63.6402 30.9886 62.7973 31.1648 61.8352 31.1648C60.8693 31.1648 60.0246 30.9886 59.3011 30.6364C58.5777 30.2803 58.0152 29.7841 57.6136 29.1477C57.2121 28.5114 57.0114 27.7689 57.0114 26.9205V19.3636H59.4716V26.7102C59.4716 27.1534 59.5682 27.5473 59.7614 27.892C59.9583 28.2367 60.2348 28.5076 60.5909 28.7045C60.947 28.9015 61.3617 29 61.8352 29C62.3125 29 62.7273 28.9015 63.0795 28.7045C63.4356 28.5076 63.7102 28.2367 63.9034 27.892C64.1004 27.5473 64.1989 27.1534 64.1989 26.7102V19.3636ZM68.6832 31V19.3636H71.1435V24.4943H71.2969L75.4844 19.3636H78.4332L74.1151 24.5739L78.4844 31H75.5412L72.3537 26.2159L71.1435 27.6932V31H68.6832ZM79.7145 31V19.3636H84.3054C85.1842 19.3636 85.9342 19.5208 86.5554 19.8352C87.1804 20.1458 87.6558 20.5871 87.9815 21.1591C88.3111 21.7273 88.4759 22.3958 88.4759 23.1648C88.4759 23.9375 88.3092 24.6023 87.9759 25.1591C87.6425 25.7121 87.1596 26.1364 86.527 26.4318C85.8982 26.7273 85.1368 26.875 84.2429 26.875H81.169V24.8977H83.8452C84.3149 24.8977 84.705 24.8333 85.0156 24.7045C85.3262 24.5758 85.5573 24.3826 85.7088 24.125C85.8641 23.8674 85.9418 23.5473 85.9418 23.1648C85.9418 22.7784 85.8641 22.4527 85.7088 22.1875C85.5573 21.9223 85.3243 21.7216 85.0099 21.5852C84.6993 21.4451 84.3073 21.375 83.8338 21.375H82.1747V31H79.7145ZM85.9986 25.7045L88.8906 31H86.1747L83.3452 25.7045H85.9986ZM91.5838 31.1477C91.2088 31.1477 90.8868 31.0152 90.6179 30.75C90.3527 30.4811 90.2202 30.1591 90.2202 29.7841C90.2202 29.4129 90.3527 29.0947 90.6179 28.8295C90.8868 28.5644 91.2088 28.4318 91.5838 28.4318C91.9474 28.4318 92.2656 28.5644 92.5384 28.8295C92.8111 29.0947 92.9474 29.4129 92.9474 29.7841C92.9474 30.0341 92.883 30.2633 92.7543 30.4716C92.6293 30.6761 92.4645 30.8409 92.2599 30.9659C92.0554 31.0871 91.83 31.1477 91.5838 31.1477ZM105.247 23.4375H102.759C102.713 23.1155 102.62 22.8295 102.48 22.5795C102.34 22.3258 102.16 22.1098 101.94 21.9318C101.721 21.7538 101.467 21.6174 101.179 21.5227C100.895 21.428 100.586 21.3807 100.253 21.3807C99.6506 21.3807 99.1259 21.5303 98.679 21.8295C98.232 22.125 97.8854 22.5568 97.6392 23.125C97.393 23.6894 97.2699 24.375 97.2699 25.1818C97.2699 26.0114 97.393 26.7083 97.6392 27.2727C97.8892 27.8371 98.2377 28.2633 98.6847 28.5511C99.1316 28.839 99.6487 28.983 100.236 28.983C100.565 28.983 100.87 28.9394 101.151 28.8523C101.435 28.7652 101.687 28.6383 101.906 28.4716C102.126 28.3011 102.308 28.0947 102.452 27.8523C102.599 27.6098 102.702 27.3333 102.759 27.0227L105.247 27.0341C105.183 27.5682 105.022 28.0833 104.764 28.5795C104.51 29.072 104.168 29.5133 103.736 29.9034C103.308 30.2898 102.796 30.5966 102.202 30.8239C101.611 31.0473 100.942 31.1591 100.196 31.1591C99.1581 31.1591 98.2301 30.9242 97.4119 30.4545C96.5975 29.9848 95.9536 29.3049 95.4801 28.4148C95.0104 27.5246 94.7756 26.447 94.7756 25.1818C94.7756 23.9129 95.0142 22.8333 95.4915 21.9432C95.9688 21.053 96.6165 20.375 97.4347 19.9091C98.2528 19.4394 99.1733 19.2045 100.196 19.2045C100.87 19.2045 101.495 19.2992 102.071 19.4886C102.651 19.678 103.164 19.9545 103.611 20.3182C104.058 20.678 104.421 21.1193 104.702 21.642C104.986 22.1648 105.168 22.7633 105.247 23.4375ZM107.011 31V19.3636H109.472V28.9716H114.46V31H107.011ZM118.55 19.3636V31H116.089V19.3636H118.55ZM130.307 19.3636V31H128.182L123.119 23.6761H123.034V31H120.574V19.3636H122.733L127.756 26.6818H127.858V19.3636H130.307ZM134.8 19.3636V31H132.339V19.3636H134.8ZM147.091 23.4375H144.602C144.557 23.1155 144.464 22.8295 144.324 22.5795C144.184 22.3258 144.004 22.1098 143.784 21.9318C143.564 21.7538 143.311 21.6174 143.023 21.5227C142.739 21.428 142.43 21.3807 142.097 21.3807C141.494 21.3807 140.97 21.5303 140.523 21.8295C140.076 22.125 139.729 22.5568 139.483 23.125C139.237 23.6894 139.114 24.375 139.114 25.1818C139.114 26.0114 139.237 26.7083 139.483 27.2727C139.733 27.8371 140.081 28.2633 140.528 28.5511C140.975 28.839 141.492 28.983 142.08 28.983C142.409 28.983 142.714 28.9394 142.994 28.8523C143.278 28.7652 143.53 28.6383 143.75 28.4716C143.97 28.3011 144.152 28.0947 144.295 27.8523C144.443 27.6098 144.545 27.3333 144.602 27.0227L147.091 27.0341C147.027 27.5682 146.866 28.0833 146.608 28.5795C146.354 29.072 146.011 29.5133 145.58 29.9034C145.152 30.2898 144.64 30.5966 144.045 30.8239C143.455 31.0473 142.786 31.1591 142.04 31.1591C141.002 31.1591 140.074 30.9242 139.256 30.4545C138.441 29.9848 137.797 29.3049 137.324 28.4148C136.854 27.5246 136.619 26.447 136.619 25.1818C136.619 23.9129 136.858 22.8333 137.335 21.9432C137.813 21.053 138.46 20.375 139.278 19.9091C140.097 19.4394 141.017 19.2045 142.04 19.2045C142.714 19.2045 143.339 19.2992 143.915 19.4886C144.494 19.678 145.008 19.9545 145.455 20.3182C145.902 20.678 146.265 21.1193 146.545 21.642C146.83 22.1648 147.011 22.7633 147.091 23.4375Z" fill="#2B2B2A"/>
<defs>
<filter id="filter0_dd_1304_131484" x="0.625" y="0.75" width="50.75" height="50.75" filterUnits="userSpaceOnUse" color-interpolation-filters="sRGB">
<feFlood flood-opacity="0" result="BackgroundImageFix"/>
<feColorMatrix in="SourceAlpha" type="matrix" values="0 0 0 0 0 0 0 0 0 0 0 0 0 0 0 0 0 0 127 0" result="hardAlpha"/>
<feOffset dy="1.125"/>
<feGaussianBlur stdDeviation="1.125"/>
<feColorMatrix type="matrix" values="0 0 0 0 0.0627451 0 0 0 0 0.0941176 0 0 0 0 0.156863 0 0 0 0.06 0"/>
<feBlend mode="normal" in2="BackgroundImageFix" result="effect1_dropShadow_1304_131484"/>
<feColorMatrix in="SourceAlpha" type="matrix" values="0 0 0 0 0 0 0 0 0 0 0 0 0 0 0 0 0 0 127 0" result="hardAlpha"/>
<feOffset dy="1.125"/>
<feGaussianBlur stdDeviation="1.6875"/>
<feColorMatrix type="matrix" values="0 0 0 0 0.0627451 0 0 0 0 0.0941176 0 0 0 0 0.156863 0 0 0 0.1 0"/>
<feBlend mode="normal" in2="effect1_dropShadow_1304_131484" result="effect2_dropShadow_1304_131484"/>
<feBlend mode="normal" in="SourceGraphic" in2="effect2_dropShadow_1304_131484" result="shape"/>
</filter>
<filter id="filter1_dd_1304_131484" x="7.95898" y="8.08398" width="36.083" height="36.0833" filterUnits="userSpaceOnUse" color-interpolation-filters="sRGB">
<feFlood flood-opacity="0" result="BackgroundImageFix"/>
<feColorMatrix in="SourceAlpha" type="matrix" values="0 0 0 0 0 0 0 0 0 0 0 0 0 0 0 0 0 0 127 0" result="hardAlpha"/>
<feOffset dy="1.125"/>
<feGaussianBlur stdDeviation="1.125"/>
<feColorMatrix type="matrix" values="0 0 0 0 0.0627451 0 0 0 0 0.0941176 0 0 0 0 0.156863 0 0 0 0.06 0"/>
<feBlend mode="normal" in2="BackgroundImageFix" result="effect1_dropShadow_1304_131484"/>
<feColorMatrix in="SourceAlpha" type="matrix" values="0 0 0 0 0 0 0 0 0 0 0 0 0 0 0 0 0 0 127 0" result="hardAlpha"/>
<feOffset dy="1.125"/>
<feGaussianBlur stdDeviation="1.6875"/>
<feColorMatrix type="matrix" values="0 0 0 0 0.0627451 0 0 0 0 0.0941176 0 0 0 0 0.156863 0 0 0 0.1 0"/>
<feBlend mode="normal" in2="effect1_dropShadow_1304_131484" result="effect2_dropShadow_1304_131484"/>
<feBlend mode="normal" in="SourceGraphic" in2="effect2_dropShadow_1304_131484" result="shape"/>
</filter>
<linearGradient id="paint0_linear_1304_131484" x1="26" y1="3" x2="26" y2="47" gradientUnits="userSpaceOnUse">
<stop stop-color="white"/>
<stop offset="1" stop-color="#D0D5DD"/>
</linearGradient>
<linearGradient id="paint1_linear_1304_131484" x1="18.6673" y1="39.6673" x2="33.334" y2="10.334" gradientUnits="userSpaceOnUse">
<stop stop-color="#4988EC"/>
<stop offset="1" stop-color="#3470FF"/>
</linearGradient>
<clipPath id="clip0_1304_131484">
<rect width="16" height="16" fill="white" transform="translate(18 17)"/>
</clipPath>
</defs>
</svg>
