<svg xmlns="http://www.w3.org/2000/svg" viewBox="0 0 413.7 95.97"><defs><style>.cls-1{fill:#43c1c5;}</style></defs><title>1Asset 2</title><g id="Layer_2" data-name="Layer 2"><g id="Слой_1" data-name="Слой 1"><path class="cls-1" d="M195,94.19a5.73,5.73,0,0,1-1.6.23,3.61,3.61,0,0,1-1.2-.21,3.07,3.07,0,0,1-1.08-.62,3.19,3.19,0,0,1-.78-1.07,3.73,3.73,0,0,1-.3-1.57V86.67a3.84,3.84,0,0,1,.29-1.56,3,3,0,0,1,.78-1.06,3.09,3.09,0,0,1,1.09-.61,4,4,0,0,1,1.25-.19,5.17,5.17,0,0,1,1.56.23,4.18,4.18,0,0,1,1.35.68l.71-1.07A5.88,5.88,0,0,0,193.49,82a5.66,5.66,0,0,0-1.88.31,4.49,4.49,0,0,0-1.51.9,4.11,4.11,0,0,0-1,1.39,4.23,4.23,0,0,0-.37,1.8v4.84a4.54,4.54,0,0,0,.36,1.84,4.23,4.23,0,0,0,1,1.4,4.64,4.64,0,0,0,1.51.89,5.53,5.53,0,0,0,1.9.31,6.2,6.2,0,0,0,2.12-.35,5.51,5.51,0,0,0,1.52-.8l-.69-1.05A3.83,3.83,0,0,1,195,94.19Z"/><rect class="cls-1" x="205.14" y="82.12" width="1.36" height="13.41"/><polygon class="cls-1" points="221.09 91.75 221.01 91.75 216.34 82.12 215.02 82.12 215.02 95.53 216.38 95.53 216.46 85.48 216.54 85.48 220.51 93.46 221.58 93.46 225.51 85.35 225.57 85.35 225.57 95.53 226.93 95.53 226.93 82.12 225.66 82.12 221.09 91.75"/><polygon class="cls-1" points="235.02 95.53 243.82 95.53 243.82 94.3 236.38 94.3 236.38 89.4 242.76 89.4 242.76 88.15 236.38 88.15 236.38 83.36 243.82 83.36 243.82 82.12 235.02 82.12 235.02 95.53"/><path class="cls-1" d="M255.09,81.35a3,3,0,0,0,1.22.22,2.75,2.75,0,0,0,1.17-.22,2.36,2.36,0,0,0,.79-.57,2.42,2.42,0,0,0,.46-.76,4.27,4.27,0,0,0,.2-.78h-1.07a1.62,1.62,0,0,1-.47,1,1.53,1.53,0,0,1-1.08.38,1.45,1.45,0,0,1-1.05-.4,1.58,1.58,0,0,1-.51-.94h-1.09a2.61,2.61,0,0,0,.17.78,2.38,2.38,0,0,0,.45.76A2.45,2.45,0,0,0,255.09,81.35Z"/><polygon class="cls-1" points="255.31 89.4 252.88 93.13 252.79 93.13 252.79 82.12 251.42 82.12 251.42 95.53 252.76 95.53 257.39 88.44 259.98 84.45 260.06 84.45 260.06 95.53 261.42 95.53 261.42 82.12 260.08 82.12 255.31 89.4"/><polygon class="cls-1" points="277.73 88.09 270.8 88.09 270.8 82.12 269.44 82.12 269.44 95.53 270.8 95.53 270.8 89.33 277.73 89.33 277.73 95.53 279.15 95.53 279.15 82.12 277.73 82.12 277.73 88.09"/><path class="cls-1" d="M291,82.12q-1.17,3.39-2.33,6.7l-2.32,6.71h1.44l1-3.12h5.74c.18.52.35,1,.52,1.56s.35,1,.53,1.56h1.47l-4.66-13.41Zm2.64,7.47c.22.66.39,1.19.51,1.58h-4.87l.53-1.58.69-2.07c.24-.72.47-1.41.68-2.07s.38-1.18.5-1.56h.06c.11.38.28.89.5,1.56s.45,1.35.7,2.07S293.42,88.93,293.64,89.59Z"/><path class="cls-1" d="M321.65,89.46a2.21,2.21,0,0,0-1.35-.94,2.19,2.19,0,0,0,1.15-.89,6.24,6.24,0,0,0,.79-1.66l1.23-3.85h-1.3L320.88,86a3.6,3.6,0,0,1-.51,1,2.31,2.31,0,0,1-.63.62,2.22,2.22,0,0,1-.7.29,3.4,3.4,0,0,1-.69.08h-2.49v-5.9H314.5V95.53h1.36V89.2h2.65a3.22,3.22,0,0,1,.76.09,2.31,2.31,0,0,1,.7.32,2.37,2.37,0,0,1,.6.65,4.21,4.21,0,0,1,.47,1.08l1.26,4.19h1.42l-1.32-4.38A6.46,6.46,0,0,0,321.65,89.46Z"/><path class="cls-1" d="M332.55,87.92a20,20,0,0,1-.16,2.79,7.84,7.84,0,0,1-.5,1.92,4.44,4.44,0,0,1-.8,1.28,5.17,5.17,0,0,1-1.12.89l.62,1.17A5.76,5.76,0,0,0,332,95a5.22,5.22,0,0,0,1-1.53,9,9,0,0,0,.64-2.2,17.74,17.74,0,0,0,.22-3V83.36h5.36V95.53h1.36V82.12h-8.08Z"/><rect class="cls-1" x="349.21" y="82.12" width="1.36" height="13.41"/><polygon class="cls-1" points="367.34 88.09 360.41 88.09 360.41 82.12 359.05 82.12 359.05 95.53 360.41 95.53 360.41 89.33 367.34 89.33 367.34 95.53 368.76 95.53 368.76 82.12 367.34 82.12 367.34 88.09"/><rect class="cls-1" x="377.24" y="82.12" width="1.36" height="13.41"/><path class="cls-1" d="M394.29,89.46a2.16,2.16,0,0,0-1.35-.94,2.21,2.21,0,0,0,1.16-.89,6.24,6.24,0,0,0,.79-1.66l1.22-3.85h-1.3L393.53,86a3.6,3.6,0,0,1-.51,1,2.31,2.31,0,0,1-.63.62,2.22,2.22,0,0,1-.7.29A3.4,3.4,0,0,1,391,88h-2.49v-5.9h-1.37V95.53h1.37V89.2h2.64a3.22,3.22,0,0,1,.76.09,2.11,2.11,0,0,1,.7.32,2.39,2.39,0,0,1,.61.65,4.22,4.22,0,0,1,.46,1.08L395,95.53h1.42l-1.32-4.38A6.15,6.15,0,0,0,394.29,89.46Z"/><path class="cls-1" d="M407.59,82.12c-.77,2.26-1.55,4.49-2.32,6.7s-1.55,4.45-2.33,6.71h1.44l1.05-3.12h5.74c.18.52.36,1,.53,1.56s.34,1,.52,1.56h1.48L409,82.12Zm2.65,7.47c.22.66.39,1.19.51,1.58h-4.87l.53-1.58.69-2.07c.24-.72.46-1.41.68-2.07s.38-1.18.49-1.56h.06c.12.38.29.89.51,1.56s.45,1.35.7,2.07S410,88.93,410.24,89.59Z"/><path class="cls-1" d="M123.69,90.24h0a.19.19,0,0,1,0-.08v0s-5-7.7-2.56-20.55a63.52,63.52,0,0,0,1.35-9.2,34.62,34.62,0,0,0-.53-8,22.42,22.42,0,0,1,1,17.3,22.31,22.31,0,0,0,2.73-10.72c0-9.72-6.66-19.15-16.22-21.46a26.06,26.06,0,0,0-8.25-.72c-3.3.33-6.48,1.38-9.76,1.88A24.16,24.16,0,0,1,82,37.85a.11.11,0,0,1,0-.05c0-.31,0-.62-.08-.93s-.08-.61-.15-.91l-.12-.51c-1-3.22-2.26-7.51-4.82-9.89a4.38,4.38,0,0,0-4.32-.89c-1.34.37-2.67.82-4,1.26L60,29l3.19-2.28c-5.16-2.41-10.66-.83-15.39,1.86a21.63,21.63,0,0,0-2.23,1.65l-2,1.63a48.06,48.06,0,0,1-7.63,5.35,9.32,9.32,0,0,1-4.35,1.27A5.4,5.4,0,0,1,30,38.39a8.73,8.73,0,0,1-4.85-14.7,8.65,8.65,0,0,1,6.14-2.54h.26V19h-.25a12,12,0,0,0-2,.17A12.35,12.35,0,0,0,24.55,21a13.32,13.32,0,0,0-4,4.86,15.22,15.22,0,0,0-1.25,7.24c0,.37.09.74.16,1.1s.16.72.26,1.07a14.72,14.72,0,0,0,3,5.33,20.05,20.05,0,0,0,3,2.8C30.52,47.15,36,48,41.75,49.11l1.29.22.19,0a12.83,12.83,0,0,1,10,8.29A21.08,21.08,0,0,1,54,62.82c.29,10-6.63,27.31-6.63,27.31v.22C25.91,91.44,8.84,93.46,0,96c22.64-2.2,51.88-3.53,83.82-3.53S145,93.77,167.63,96c-8.37-2.37-24.11-4.31-43.94-5.43ZM35.22,42.4a15.56,15.56,0,0,0,7.69,1.2c.51-.05,1-.13,1.49-.21l.7,2.36A15,15,0,0,1,35.22,42.4ZM83.58,89.47q-5.73,0-11.27.09a59.76,59.76,0,0,0,1.53-6.15l.13,0a16.33,16.33,0,0,0,7.46-.65,11.5,11.5,0,0,0,2.34-1.1,7.79,7.79,0,0,0,1.93-1.62C84.72,81.64,83.65,86.31,83.58,89.47Zm5.59,0a10.43,10.43,0,0,1,20.28.41C103,89.68,96.18,89.54,89.17,89.49Zm27.3-13.85c-.36,4.53-1.34,9.85-.33,14.49h-.67l-1.07,0c-.55-2-1.47-3.67-1.26-6.48.32-4.33.78-8.73-1-12.82a11,11,0,0,0-8.31-6.71,19.09,19.09,0,0,0-4.27-.27,9,9,0,0,1-.9,4.06,8.2,8.2,0,0,1-3.59,3.76,6.11,6.11,0,0,1-.58.27c.19-.14.37-.3.55-.46a8.65,8.65,0,0,0,2-2.68A9,9,0,0,0,98,63.9a6.77,6.77,0,0,0-3.29-4.81c-1.83-1-4.05-1.76-6.24-.9s-4,8-4,9.17c0-.67-.26-1.31-.27-2A8.81,8.81,0,0,1,84.34,64,9.11,9.11,0,0,0,78,68.93l-.15.35a12.53,12.53,0,0,0-.43,1.31,13.27,13.27,0,0,0-.32,1.78,15,15,0,0,0-.1,2.5c0,.95.32,2,.32,3,0,.1,0,.21,0,.31v0c0,.11,0,.26,0,.41C77,80.17,75.57,81,74.16,81.5a3.59,3.59,0,0,1-1.49.17,13.62,13.62,0,0,0-1.56-.22,3.16,3.16,0,0,0-2.61,2.06.93.93,0,0,0,0,.13c-.16,0-.17-.08-.14-.17.24-.92.74-2.23,1.75-2.54a5.88,5.88,0,0,1,2.17.1,3.7,3.7,0,0,0,1.05-.09c.13,0,1-.23,1-.37.44-4,0-7.06-1.21-9.21a18.23,18.23,0,0,0-4.67-5.5c-2-1.51-4.41-1.78-6.14.43s-2.34,6-2.34,9c0,5.89,2.42,10.67,5.4,10.67a4.11,4.11,0,0,0,3.23-2.15,5.31,5.31,0,0,1,.7.53c-.06.18-.11.35-.17.5a6.08,6.08,0,0,1-.49,1,4,4,0,0,1-3.37,2.08h0a3.44,3.44,0,0,1-.46,0c-4.63,0-8.39-8.53-8.39-19,0-1.28,0-2.52.16-3.73a42,42,0,0,1,1.17-7.23C59.56,50.38,62.23,45,72.32,44.16a12.08,12.08,0,0,0-1,3.91c0-.29.54-.84.68-1.06.53-.79,1.1-1.57,1.7-2.3a14.73,14.73,0,0,1,4.53-3.61A6.18,6.18,0,0,1,86,42.36a12.5,12.5,0,0,1,2.63,7.46,9.37,9.37,0,0,1-.35,2.56c.69-.31,9.32-1.29,11.18-1.46,5.07-.46,10.64.11,14.34,4.26C118.45,60.41,117,69.12,116.47,75.64Z"/><path class="cls-1" d="M220.91,62.88a13.48,13.48,0,0,0,.62-3.81V30.5a10.49,10.49,0,0,0-3.95-8.35q-4-3.33-12.46-3.33a26.4,26.4,0,0,0-7.43.92,15.25,15.25,0,0,0-5.11,2.51,9.54,9.54,0,0,0-3,3.71,11.36,11.36,0,0,0-.91,4.54v2.32h8.2A7.09,7.09,0,0,1,198.61,28q1.69-2,6.51-2a13,13,0,0,1,4,.53,7.08,7.08,0,0,1,2.56,1.4A5,5,0,0,1,213,29.87a5.53,5.53,0,0,1,.39,2v1.84a4.53,4.53,0,0,1-.44,2,7.59,7.59,0,0,1-1,1.54,4.25,4.25,0,0,1-1.21,1l-1,.53c-.26.07-.9.29-1.93.68s-2.24.82-3.62,1.3l-4.3,1.5L196,43.63a10.24,10.24,0,0,0-5.36,4.24,12.32,12.32,0,0,0-1.88,6.66v4.54a13.17,13.17,0,0,0,.63,3.81,8.66,8.66,0,0,0,2.45,3.82,14.48,14.48,0,0,0,5,2.89,30.27,30.27,0,0,0,16.6,0,14.53,14.53,0,0,0,5-2.89A8.77,8.77,0,0,0,220.91,62.88Zm-7.48-6.61a7.62,7.62,0,0,1-1.74,5.36q-1.74,1.88-6.57,1.88c-3.15,0-5.3-.59-6.46-1.79s-1.74-3-1.74-5.45a5.78,5.78,0,0,1,.73-3,8.52,8.52,0,0,1,1.59-2,9.23,9.23,0,0,1,2.22-1.35c1-.38,2.12-.77,3.28-1.16,1-.32,2-.69,3.14-1.11s2.17-.78,3.13-1.11a5.44,5.44,0,0,0,1.45-.67,2.11,2.11,0,0,0,1-1.45Z"/><path class="cls-1" d="M280.31,70h8.21V30.5a17,17,0,0,0-.39-3,8.63,8.63,0,0,0-2-3.91,12.93,12.93,0,0,0-4.92-3.33,23.78,23.78,0,0,0-9.07-1.4,26.07,26.07,0,0,0-7.58.92A16.25,16.25,0,0,0,259.75,22,16.06,16.06,0,0,0,255,19.74a26.11,26.11,0,0,0-7.58-.92,23.74,23.74,0,0,0-9.07,1.4,12.93,12.93,0,0,0-4.92,3.33,8.68,8.68,0,0,0-2,3.86A16.51,16.51,0,0,0,231,30.5V70h8.11V31.85a6.31,6.31,0,0,1,.29-1.78,4,4,0,0,1,1.21-1.88,7.65,7.65,0,0,1,2.6-1.5,12.76,12.76,0,0,1,4.39-.63,11.94,11.94,0,0,1,4.3.63,6.31,6.31,0,0,1,2.41,1.54,4.42,4.42,0,0,1,1.06,1.93,8.29,8.29,0,0,1,.24,1.89V70h8.21V31.85a6.69,6.69,0,0,1,.29-1.78,4,4,0,0,1,1.21-1.88,7.55,7.55,0,0,1,2.6-1.5,12.76,12.76,0,0,1,4.39-.63,12,12,0,0,1,4.3.63A6.31,6.31,0,0,1,279,28.23a4.52,4.52,0,0,1,1.06,1.93,8.29,8.29,0,0,1,.24,1.89V70Z"/><path class="cls-1" d="M330.89,56.85h-8.2a8.37,8.37,0,0,1-.49,2.9,5,5,0,0,1-1.73,2.31,10.17,10.17,0,0,1-2,.92,12,12,0,0,1-4,.53,13.36,13.36,0,0,1-3.13-.29,8.88,8.88,0,0,1-2-.68,4.23,4.23,0,0,1-1.45-.86,5.58,5.58,0,0,1-.87-1.16,6.71,6.71,0,0,1-.87-3.67V52.51A6.05,6.05,0,0,1,308.11,48a6.28,6.28,0,0,1,4.44-1.83h7.34a8.66,8.66,0,0,0,2.6-.39,17.64,17.64,0,0,0,2.41-.87,6.79,6.79,0,0,0,2.42-1.74,11.18,11.18,0,0,0,2.94-4.34,12.46,12.46,0,0,0,.63-3.67V30.5a17.74,17.74,0,0,0-.38-3,8.66,8.66,0,0,0-2-3.91,12.93,12.93,0,0,0-4.92-3.33,30.08,30.08,0,0,0-18.14,0,12.93,12.93,0,0,0-4.92,3.33,8.68,8.68,0,0,0-2,3.86,17.23,17.23,0,0,0-.38,3.09V59.07a9.42,9.42,0,0,0,1.64,5.79A14.3,14.3,0,0,0,301.65,67a11.27,11.27,0,0,0,2.94,1.88,20.33,20.33,0,0,0,4.2,1.35,27.06,27.06,0,0,0,5.69.53,26,26,0,0,0,7.34-.87,15.55,15.55,0,0,0,4.53-2A10.43,10.43,0,0,0,329.78,64a10.61,10.61,0,0,0,1.11-4.82ZM306.18,33.78V31.85a6.69,6.69,0,0,1,.29-1.78,4.19,4.19,0,0,1,1.21-1.88,7.6,7.6,0,0,1,2.61-1.5,12.76,12.76,0,0,1,4.39-.63,11.59,11.59,0,0,1,4.19.63,6.75,6.75,0,0,1,2.47,1.54,4.45,4.45,0,0,1,1.11,1.93,8.29,8.29,0,0,1,.24,1.89v1.73A5.14,5.14,0,0,1,321,37.6a5.35,5.35,0,0,1-3.85,1.59h-5.51c-.32,0-.77,0-1.34.09a9.07,9.07,0,0,0-1.74.39,5.11,5.11,0,0,0-1.55.82,2.38,2.38,0,0,0-.87,1.4Z"/><path class="cls-1" d="M363.22,12.36v1.83a4.49,4.49,0,0,1-.43,2,7.63,7.63,0,0,1-1,1.54,4.09,4.09,0,0,1-1.2,1l-1,.54c-.26.06-.91.28-1.94.67s-2.22.82-3.56,1.31l-4.25,1.49c-1.48.52-2.8,1-4,1.35a10.24,10.24,0,0,0-5.45,4.25A12.22,12.22,0,0,0,338.51,35v2.22h.1V56.85h-.1v2.32a11.37,11.37,0,0,0,.92,4.54,9.51,9.51,0,0,0,2.94,3.71,15.3,15.3,0,0,0,5.17,2.51,26.87,26.87,0,0,0,7.48.92c5.6,0,9.71-1.12,12.35-3.33a10.77,10.77,0,0,0,4.06-8.35V0h-8.21Zm0,24.41V57.72a6.14,6.14,0,0,1-.38,2,5.23,5.23,0,0,1-1.3,1.93,6.86,6.86,0,0,1-2.52,1.4,13,13,0,0,1-4,.53,12.57,12.57,0,0,1-3.91-.53,6.73,6.73,0,0,1-2.51-1.4,5.4,5.4,0,0,1-1.35-2,8.51,8.51,0,0,1-.53-2.41V36.77a5.81,5.81,0,0,1,.72-3,8.63,8.63,0,0,1,1.59-2,7.71,7.71,0,0,1,2.23-1.44c1-.39,2.12-.77,3.28-1.16,1-.32,2-.67,3.13-1.06L360.81,27a4.86,4.86,0,0,0,1.49-.68,2.19,2.19,0,0,0,.92-1.54Z"/><path class="cls-1" d="M409.74,22.15c-2.64-2.22-6.78-3.33-12.45-3.33a26.4,26.4,0,0,0-7.43.92,15.21,15.21,0,0,0-5.12,2.51A9.51,9.51,0,0,0,381.8,26a11.37,11.37,0,0,0-.92,4.54v2.32h8.21A7.09,7.09,0,0,1,390.78,28c1.13-1.32,3.29-2,6.51-2a13,13,0,0,1,4,.53,7.17,7.17,0,0,1,2.56,1.4,5,5,0,0,1,1.35,1.88,5.73,5.73,0,0,1,.38,2v1.84a4.52,4.52,0,0,1-.43,2,8,8,0,0,1-1,1.54,4.39,4.39,0,0,1-1.21,1l-1,.53c-.26.07-.9.29-1.93.68s-2.24.82-3.63,1.3l-4.29,1.5-4,1.35a10.25,10.25,0,0,0-5.35,4.24,12.24,12.24,0,0,0-1.89,6.66v4.54a13.17,13.17,0,0,0,.63,3.81A8.77,8.77,0,0,0,384,66.7a14.43,14.43,0,0,0,5,2.89,30.27,30.27,0,0,0,16.6,0,14.34,14.34,0,0,0,5-2.89,8.68,8.68,0,0,0,2.46-3.82,13.17,13.17,0,0,0,.63-3.81V30.5A10.47,10.47,0,0,0,409.74,22.15Zm-4.15,34.12a7.66,7.66,0,0,1-1.73,5.36q-1.74,1.88-6.57,1.88c-3.15,0-5.31-.59-6.46-1.79s-1.74-3-1.74-5.45a5.87,5.87,0,0,1,.72-3,8.54,8.54,0,0,1,1.6-2,9,9,0,0,1,2.21-1.35c1-.38,2.13-.77,3.29-1.16,1-.32,2-.69,3.13-1.11s2.17-.78,3.14-1.11a5.59,5.59,0,0,0,1.45-.67,2.13,2.13,0,0,0,1-1.45Z"/></g></g></svg>